<svg xmlns="http://www.w3.org/2000/svg" xmlns:xlink="http://www.w3.org/1999/xlink" contentStyleType="text/css" height="1521px" preserveAspectRatio="none" style="width:1146px;height:1521px;background:#FFFFFF;" version="1.1" viewBox="0 0 1146 1521" width="1146px" zoomAndPan="magnify"><defs/><g><!--class Customer--><g id="elem_Customer"><rect codeLine="3" fill="#F1F1F1" height="143.3396" id="Customer" rx="2.5" ry="2.5" style="stroke:#181818;stroke-width:0.5;" width="167.1895" x="714.13" y="7"/><ellipse cx="761.2259" cy="23" fill="#ADD1B2" rx="11" ry="11" style="stroke:#181818;stroke-width:1.0;"/><path d="M757.5852,29.5 L757.5852,17.3594 L765.2415,17.3594 L765.2415,19.4844 L759.9602,19.4844 L759.9602,22.1406 L764.9759,22.1406 L764.9759,24.2656 L759.9602,24.2656 L759.9602,27.375 L765.2415,27.375 L765.2415,29.5 L757.5852,29.5 Z " fill="#000000"/><text fill="#000000" font-family="sans-serif" font-size="14" lengthAdjust="spacing" textLength="64.4978" x="781.7259" y="28.432">Customer</text><line style="stroke:#181818;stroke-width:0.5;" x1="715.13" x2="880.3195" y1="39" y2="39"/><ellipse cx="725.13" cy="54.034" fill="#000000" rx="3" ry="3" style="stroke:#000000;stroke-width:1.0;"/><text fill="#000000" font-family="sans-serif" font-size="14" lengthAdjust="spacing" textLength="141.1895" x="734.13" y="57.9659">id: UUID &#171;generated&#187;</text><line style="stroke:#181818;stroke-width:1.0;" x1="715.13" x2="880.3195" y1="66.0679" y2="66.0679"/><ellipse cx="725.13" cy="81.1019" fill="#000000" rx="3" ry="3" style="stroke:#000000;stroke-width:1.0;"/><text fill="#000000" font-family="sans-serif" font-size="14" lengthAdjust="spacing" textLength="94.6396" x="734.13" y="85.0339">name: varchar</text><ellipse cx="725.13" cy="100.1698" fill="#000000" rx="3" ry="3" style="stroke:#000000;stroke-width:1.0;"/><text fill="#000000" font-family="sans-serif" font-size="14" lengthAdjust="spacing" textLength="99.4276" x="734.13" y="104.1018">phone: varchar</text><ellipse cx="725.13" cy="119.2377" fill="#000000" rx="3" ry="3" style="stroke:#000000;stroke-width:1.0;"/><text fill="#000000" font-family="sans-serif" font-size="14" lengthAdjust="spacing" textLength="93.2116" x="734.13" y="123.1697">email: varchar</text><ellipse cx="725.13" cy="138.3056" fill="#000000" rx="3" ry="3" style="stroke:#000000;stroke-width:1.0;"/><text fill="#000000" font-family="sans-serif" font-size="14" lengthAdjust="spacing" textLength="109.3116" x="734.13" y="142.2376">address: varchar</text></g><!--class Integrator--><g id="elem_Integrator"><rect codeLine="12" fill="#F1F1F1" height="143.3396" id="Integrator" rx="2.5" ry="2.5" style="stroke:#181818;stroke-width:0.5;" width="153.1895" x="460.13" y="7"/><ellipse cx="499.1104" cy="23" fill="#ADD1B2" rx="11" ry="11" style="stroke:#181818;stroke-width:1.0;"/><path d="M495.4697,29.5 L495.4697,17.3594 L503.126,17.3594 L503.126,19.4844 L497.8447,19.4844 L497.8447,22.1406 L502.8604,22.1406 L502.8604,24.2656 L497.8447,24.2656 L497.8447,27.375 L503.126,27.375 L503.126,29.5 L495.4697,29.5 Z " fill="#000000"/><text fill="#000000" font-family="sans-serif" font-size="14" lengthAdjust="spacing" textLength="67.8998" x="518.4393" y="28.432">Integrator</text><line style="stroke:#181818;stroke-width:0.5;" x1="461.13" x2="612.3195" y1="39" y2="39"/><text fill="#000000" font-family="sans-serif" font-size="14" lengthAdjust="spacing" textLength="141.1895" x="466.13" y="57.9659">id: UUID &#171;generated&#187;</text><line style="stroke:#181818;stroke-width:1.0;" x1="461.13" x2="612.3195" y1="66.0679" y2="66.0679"/><ellipse cx="471.13" cy="81.1019" fill="#000000" rx="3" ry="3" style="stroke:#000000;stroke-width:1.0;"/><text fill="#000000" font-family="sans-serif" font-size="14" lengthAdjust="spacing" textLength="94.6396" x="480.13" y="85.0339">name: varchar</text><ellipse cx="471.13" cy="100.1698" fill="#000000" rx="3" ry="3" style="stroke:#000000;stroke-width:1.0;"/><text fill="#000000" font-family="sans-serif" font-size="14" lengthAdjust="spacing" textLength="99.4276" x="480.13" y="104.1018">phone: varchar</text><ellipse cx="471.13" cy="119.2377" fill="#000000" rx="3" ry="3" style="stroke:#000000;stroke-width:1.0;"/><text fill="#000000" font-family="sans-serif" font-size="14" lengthAdjust="spacing" textLength="93.2116" x="480.13" y="123.1697">email: varchar</text><text fill="#000000" font-family="sans-serif" font-size="14" lengthAdjust="spacing" textLength="3.64" x="480.13" y="142.2376">&#160;</text></g><!--class Location--><g id="elem_Location"><rect codeLine="21" fill="#F1F1F1" height="143.3396" id="Location" rx="2.5" ry="2.5" style="stroke:#181818;stroke-width:0.5;" width="225.8492" x="423.8" y="210.34"/><ellipse cx="504.3907" cy="226.34" fill="#ADD1B2" rx="11" ry="11" style="stroke:#181818;stroke-width:1.0;"/><path d="M500.7501,232.84 L500.7501,220.6994 L508.4064,220.6994 L508.4064,222.8244 L503.1251,222.8244 L503.1251,225.4806 L508.1407,225.4806 L508.1407,227.6056 L503.1251,227.6056 L503.1251,230.715 L508.4064,230.715 L508.4064,232.84 L500.7501,232.84 Z " fill="#000000"/><text fill="#000000" font-family="sans-serif" font-size="14" lengthAdjust="spacing" textLength="56.1678" x="524.8907" y="231.772">Location</text><line style="stroke:#181818;stroke-width:0.5;" x1="424.8" x2="648.6492" y1="242.34" y2="242.34"/><ellipse cx="434.8" cy="257.374" fill="#000000" rx="3" ry="3" style="stroke:#000000;stroke-width:1.0;"/><text fill="#000000" font-family="sans-serif" font-size="14" lengthAdjust="spacing" textLength="199.8492" x="443.8" y="261.3059">location_id: UUID &#171;generated&#187;</text><line style="stroke:#181818;stroke-width:1.0;" x1="424.8" x2="648.6492" y1="269.4079" y2="269.4079"/><ellipse cx="434.8" cy="284.4419" fill="#000000" rx="3" ry="3" style="stroke:#000000;stroke-width:1.0;"/><text fill="#000000" font-family="sans-serif" font-size="14" lengthAdjust="spacing" textLength="157.4574" x="443.8" y="288.3739">customer_id: UUID &#171;FK&#187;</text><ellipse cx="434.8" cy="303.5098" fill="#000000" rx="3" ry="3" style="stroke:#000000;stroke-width:1.0;"/><text fill="#000000" font-family="sans-serif" font-size="14" lengthAdjust="spacing" textLength="161.8534" x="443.8" y="307.4418">integrator_id: UUID &#171;FK&#187;</text><ellipse cx="434.8" cy="322.5777" fill="#000000" rx="3" ry="3" style="stroke:#000000;stroke-width:1.0;"/><text fill="#000000" font-family="sans-serif" font-size="14" lengthAdjust="spacing" textLength="94.6396" x="443.8" y="326.5097">name: varchar</text><ellipse cx="434.8" cy="341.6456" fill="#000000" rx="3" ry="3" style="stroke:#000000;stroke-width:1.0;"/><text fill="#000000" font-family="sans-serif" font-size="14" lengthAdjust="spacing" textLength="109.3116" x="443.8" y="345.5776">address: varchar</text></g><!--class IOTDeviceType--><g id="elem_IOTDeviceType"><rect codeLine="30" fill="#F1F1F1" height="78.1358" id="IOTDeviceType" rx="2.5" ry="2.5" style="stroke:#181818;stroke-width:0.5;" width="168.3374" x="387.56" y="687.76"/><ellipse cx="419.6545" cy="703.76" fill="#EB937F" rx="11" ry="11" style="stroke:#181818;stroke-width:1.0;"/><path d="M416.0139,710.26 L416.0139,698.1194 L423.6701,698.1194 L423.6701,700.2444 L418.3889,700.2444 L418.3889,702.9006 L423.4045,702.9006 L423.4045,705.0256 L418.3889,705.0256 L418.3889,708.135 L423.6701,708.135 L423.6701,710.26 L416.0139,710.26 Z " fill="#000000"/><text fill="#000000" font-family="sans-serif" font-size="14" lengthAdjust="spacing" textLength="98.3496" x="437.4533" y="709.192">IOTDeviceType</text><line style="stroke:#181818;stroke-width:0.5;" x1="388.56" x2="554.8974" y1="719.76" y2="719.76"/><text fill="#000000" font-family="sans-serif" font-size="14" lengthAdjust="spacing" textLength="156.3374" x="393.56" y="738.7259">TEMPERATURE_SENSOR</text><text fill="#000000" font-family="sans-serif" font-size="14" lengthAdjust="spacing" textLength="126.7275" x="393.56" y="757.7939">WARMING_SYSTEM</text></g><!--class IOTDeviceProtocol--><g id="elem_IOTDeviceProtocol"><rect codeLine="35" fill="#F1F1F1" height="59.0679" id="IOTDeviceProtocol" rx="2.5" ry="2.5" style="stroke:#181818;stroke-width:0.5;" width="153.9675" x="590.74" y="697.29"/><ellipse cx="605.74" cy="713.29" fill="#EB937F" rx="11" ry="11" style="stroke:#181818;stroke-width:1.0;"/><path d="M602.0994,719.79 L602.0994,707.6494 L609.7556,707.6494 L609.7556,709.7744 L604.4744,709.7744 L604.4744,712.4306 L609.49,712.4306 L609.49,714.5556 L604.4744,714.5556 L604.4744,717.665 L609.7556,717.665 L609.7556,719.79 L602.0994,719.79 Z " fill="#000000"/><text fill="#000000" font-family="sans-serif" font-size="14" lengthAdjust="spacing" textLength="121.9675" x="619.74" y="718.722">IOTDeviceProtocol</text><line style="stroke:#181818;stroke-width:0.5;" x1="591.74" x2="743.7075" y1="729.29" y2="729.29"/><text fill="#000000" font-family="sans-serif" font-size="14" lengthAdjust="spacing" textLength="111.6356" x="596.74" y="748.2559">IOT_PROTOCOL1</text></g><!--class IOTDevice--><g id="elem_IOTDevice"><rect codeLine="39" fill="#F1F1F1" height="181.4754" id="IOTDevice" rx="2.5" ry="2.5" style="stroke:#181818;stroke-width:0.5;" width="206.2633" x="368.59" y="413.68"/><ellipse cx="434.0118" cy="429.68" fill="#ADD1B2" rx="11" ry="11" style="stroke:#181818;stroke-width:1.0;"/><path d="M430.3712,436.18 L430.3712,424.0394 L438.0274,424.0394 L438.0274,426.1644 L432.7462,426.1644 L432.7462,428.8206 L437.7618,428.8206 L437.7618,430.9456 L432.7462,430.9456 L432.7462,434.055 L438.0274,434.055 L438.0274,436.18 L430.3712,436.18 Z " fill="#000000"/><text fill="#000000" font-family="sans-serif" font-size="14" lengthAdjust="spacing" textLength="66.9197" x="454.5118" y="435.112">IOTDevice</text><line style="stroke:#181818;stroke-width:0.5;" x1="369.59" x2="573.8533" y1="445.68" y2="445.68"/><ellipse cx="379.59" cy="460.714" fill="#000000" rx="3" ry="3" style="stroke:#000000;stroke-width:1.0;"/><text fill="#000000" font-family="sans-serif" font-size="14" lengthAdjust="spacing" textLength="141.1895" x="388.59" y="464.6459">id: UUID &#171;generated&#187;</text><line style="stroke:#181818;stroke-width:1.0;" x1="369.59" x2="573.8533" y1="472.7479" y2="472.7479"/><text fill="#000000" font-family="sans-serif" font-size="14" lengthAdjust="spacing" textLength="180.2633" x="388.59" y="491.7139">location_id: UUID[0..1] &#171;FK&#187;</text><ellipse cx="379.59" cy="506.8498" fill="#000000" rx="3" ry="3" style="stroke:#000000;stroke-width:1.0;"/><text fill="#000000" font-family="sans-serif" font-size="14" lengthAdjust="spacing" textLength="134.4415" x="388.59" y="510.7818">type: IOTDeviceType</text><ellipse cx="379.59" cy="525.9177" fill="#000000" rx="3" ry="3" style="stroke:#000000;stroke-width:1.0;"/><text fill="#000000" font-family="sans-serif" font-size="14" lengthAdjust="spacing" textLength="103.6696" x="388.59" y="529.8497">vendor: varchar</text><ellipse cx="379.59" cy="544.9856" fill="#000000" rx="3" ry="3" style="stroke:#000000;stroke-width:1.0;"/><text fill="#000000" font-family="sans-serif" font-size="14" lengthAdjust="spacing" textLength="98.8256" x="388.59" y="548.9176">model: varchar</text><ellipse cx="379.59" cy="564.0535" fill="#000000" rx="3" ry="3" style="stroke:#000000;stroke-width:1.0;"/><text fill="#000000" font-family="sans-serif" font-size="14" lengthAdjust="spacing" textLength="165.7454" x="388.59" y="567.9855">proto: IOTDeviceProtocol</text><text fill="#000000" font-family="sans-serif" font-size="14" lengthAdjust="spacing" textLength="171.7513" x="388.59" y="587.0534">hardware_id: varchar[1..2]</text></g><!--class TelemetryPacket--><g id="elem_TelemetryPacket"><rect codeLine="50" fill="#F1F1F1" height="143.3396" id="TelemetryPacket" rx="2.5" ry="2.5" style="stroke:#181818;stroke-width:0.5;" width="175.1974" x="177.13" y="655.15"/><ellipse cx="207.24" cy="671.15" fill="#ADD1B2" rx="11" ry="11" style="stroke:#181818;stroke-width:1.0;"/><path d="M203.5994,677.65 L203.5994,665.5094 L211.2557,665.5094 L211.2557,667.6344 L205.9744,667.6344 L205.9744,670.2906 L210.99,670.2906 L210.99,672.4156 L205.9744,672.4156 L205.9744,675.525 L211.2557,675.525 L211.2557,677.65 L203.5994,677.65 Z " fill="#000000"/><text fill="#000000" font-family="sans-serif" font-size="14" lengthAdjust="spacing" textLength="109.6196" x="224.5978" y="676.582">TelemetryPacket</text><line style="stroke:#181818;stroke-width:0.5;" x1="178.13" x2="351.3274" y1="687.15" y2="687.15"/><ellipse cx="188.13" cy="702.184" fill="#000000" rx="3" ry="3" style="stroke:#000000;stroke-width:1.0;"/><text fill="#000000" font-family="sans-serif" font-size="14" lengthAdjust="spacing" textLength="149.1974" x="197.13" y="706.1159">id: UUID7 &#171;generated&#187;</text><line style="stroke:#181818;stroke-width:1.0;" x1="178.13" x2="351.3274" y1="714.2179" y2="714.2179"/><text fill="#000000" font-family="sans-serif" font-size="14" lengthAdjust="spacing" textLength="160.2854" x="183.13" y="733.1839">iot_device_id: UUID &#171;FK&#187;</text><text fill="#000000" font-family="sans-serif" font-size="14" lengthAdjust="spacing" textLength="139.0475" x="183.13" y="752.2518">generated: DateTime</text><text fill="#000000" font-family="sans-serif" font-size="14" lengthAdjust="spacing" textLength="126.3215" x="183.13" y="771.3197">received: DateTime</text><text fill="#000000" font-family="sans-serif" font-size="14" lengthAdjust="spacing" textLength="95.5916" x="183.13" y="790.3876">payload: jsonb</text></g><!--class IOTDeviceCommandStatus--><g id="elem_IOTDeviceCommandStatus"><rect codeLine="59" fill="#F1F1F1" height="135.3396" id="IOTDeviceCommandStatus" rx="2.5" ry="2.5" style="stroke:#181818;stroke-width:0.5;" width="208.5393" x="40.46" y="1379.58"/><ellipse cx="55.46" cy="1395.58" fill="#EB937F" rx="11" ry="11" style="stroke:#181818;stroke-width:1.0;"/><path d="M51.8194,1402.08 L51.8194,1389.9394 L59.4756,1389.9394 L59.4756,1392.0644 L54.1944,1392.0644 L54.1944,1394.7206 L59.21,1394.7206 L59.21,1396.8456 L54.1944,1396.8456 L54.1944,1399.955 L59.4756,1399.955 L59.4756,1402.08 L51.8194,1402.08 Z " fill="#000000"/><text fill="#000000" font-family="sans-serif" font-size="14" lengthAdjust="spacing" textLength="176.5393" x="69.46" y="1401.012">IOTDeviceCommandStatus</text><line style="stroke:#181818;stroke-width:0.5;" x1="41.46" x2="247.9993" y1="1411.58" y2="1411.58"/><text fill="#000000" font-family="sans-serif" font-size="14" lengthAdjust="spacing" textLength="79.8417" x="46.46" y="1430.5459">GENERATED</text><text fill="#000000" font-family="sans-serif" font-size="14" lengthAdjust="spacing" textLength="33.8939" x="46.46" y="1449.6139">SENT</text><text fill="#000000" font-family="sans-serif" font-size="14" lengthAdjust="spacing" textLength="72.9817" x="46.46" y="1468.6818">DELIVERED</text><text fill="#000000" font-family="sans-serif" font-size="14" lengthAdjust="spacing" textLength="77.7417" x="46.46" y="1487.7497">CANCELLED</text><text fill="#000000" font-family="sans-serif" font-size="14" lengthAdjust="spacing" textLength="46.2978" x="46.46" y="1506.8176">FAILED</text></g><!--class IOTDeviceCommand--><g id="elem_IOTDeviceCommand"><rect codeLine="67" fill="#F1F1F1" height="219.6113" id="IOTDeviceCommand" rx="2.5" ry="2.5" style="stroke:#181818;stroke-width:0.5;" width="275.451" x="7" y="1090.44"/><ellipse cx="72.7088" cy="1106.44" fill="#ADD1B2" rx="11" ry="11" style="stroke:#181818;stroke-width:1.0;"/><path d="M69.0682,1112.94 L69.0682,1100.7994 L76.7244,1100.7994 L76.7244,1102.9244 L71.4432,1102.9244 L71.4432,1105.5806 L76.4588,1105.5806 L76.4588,1107.7056 L71.4432,1107.7056 L71.4432,1110.815 L76.7244,1110.815 L76.7244,1112.94 L69.0682,1112.94 Z " fill="#000000"/><text fill="#000000" font-family="sans-serif" font-size="14" lengthAdjust="spacing" textLength="135.5335" x="93.2088" y="1111.872">IOTDeviceCommand</text><line style="stroke:#181818;stroke-width:0.5;" x1="8" x2="281.451" y1="1122.44" y2="1122.44"/><ellipse cx="18" cy="1137.474" fill="#000000" rx="3" ry="3" style="stroke:#000000;stroke-width:1.0;"/><text fill="#000000" font-family="sans-serif" font-size="14" lengthAdjust="spacing" textLength="149.1974" x="27" y="1141.4059">id: UUID7 &#171;generated&#187;</text><line style="stroke:#181818;stroke-width:1.0;" x1="8" x2="281.451" y1="1149.5079" y2="1149.5079"/><text fill="#000000" font-family="sans-serif" font-size="14" lengthAdjust="spacing" textLength="160.2854" x="13" y="1168.4739">iot_device_id: UUID &#171;FK&#187;</text><text fill="#000000" font-family="sans-serif" font-size="14" lengthAdjust="spacing" textLength="263.451" x="13" y="1187.5418">location_alarm_state_id: UUID[0..1] &#171;FK&#187;</text><text fill="#000000" font-family="sans-serif" font-size="14" lengthAdjust="spacing" textLength="139.0475" x="13" y="1206.6097">generated: DateTime</text><text fill="#000000" font-family="sans-serif" font-size="14" lengthAdjust="spacing" textLength="131.8375" x="13" y="1225.6776">sent: DateTime[0..1]</text><text fill="#000000" font-family="sans-serif" font-size="14" lengthAdjust="spacing" textLength="164.5553" x="13" y="1244.7455">delivered: DateTime[0..1]</text><text fill="#000000" font-family="sans-serif" font-size="14" lengthAdjust="spacing" textLength="120.6796" x="13" y="1263.8134">payload: byte[1..*]</text><text fill="#000000" font-family="sans-serif" font-size="14" lengthAdjust="spacing" textLength="223.9572" x="13" y="1282.8814">status: IOTDeviceCommandStatus</text><text fill="#000000" font-family="sans-serif" font-size="14" lengthAdjust="spacing" textLength="164.3874" x="13" y="1301.9493">fail_message: String[0..1]</text></g><!--class AlarmType--><g id="elem_AlarmType"><rect codeLine="80" fill="#F1F1F1" height="78.1358" id="AlarmType" rx="2.5" ry="2.5" style="stroke:#181818;stroke-width:0.5;" width="102.7137" x="883.37" y="1161.17"/><ellipse cx="898.37" cy="1177.17" fill="#EB937F" rx="11" ry="11" style="stroke:#181818;stroke-width:1.0;"/><path d="M894.7294,1183.67 L894.7294,1171.5294 L902.3856,1171.5294 L902.3856,1173.6544 L897.1044,1173.6544 L897.1044,1176.3106 L902.12,1176.3106 L902.12,1178.4356 L897.1044,1178.4356 L897.1044,1181.545 L902.3856,1181.545 L902.3856,1183.67 L894.7294,1183.67 Z " fill="#000000"/><text fill="#000000" font-family="sans-serif" font-size="14" lengthAdjust="spacing" textLength="70.7137" x="912.37" y="1182.602">AlarmType</text><line style="stroke:#181818;stroke-width:0.5;" x1="884.37" x2="985.0837" y1="1193.17" y2="1193.17"/><text fill="#000000" font-family="sans-serif" font-size="14" lengthAdjust="spacing" textLength="54.6418" x="889.37" y="1212.1359">ALARM1</text><text fill="#000000" font-family="sans-serif" font-size="14" lengthAdjust="spacing" textLength="89.5016" x="889.37" y="1231.2039">ALARM1_END</text></g><!--class NotificationTransportType--><g id="elem_NotificationTransportType"><rect codeLine="85" fill="#F1F1F1" height="97.2038" id="NotificationTransportType" rx="2.5" ry="2.5" style="stroke:#181818;stroke-width:0.5;" width="204.6893" x="520.38" y="1398.65"/><ellipse cx="535.38" cy="1414.65" fill="#EB937F" rx="11" ry="11" style="stroke:#181818;stroke-width:1.0;"/><path d="M531.7394,1421.15 L531.7394,1409.0094 L539.3956,1409.0094 L539.3956,1411.1344 L534.1144,1411.1344 L534.1144,1413.7906 L539.13,1413.7906 L539.13,1415.9156 L534.1144,1415.9156 L534.1144,1419.025 L539.3956,1419.025 L539.3956,1421.15 L531.7394,1421.15 Z " fill="#000000"/><text fill="#000000" font-family="sans-serif" font-size="14" lengthAdjust="spacing" textLength="172.6893" x="549.38" y="1420.082">NotificationTransportType</text><line style="stroke:#181818;stroke-width:0.5;" x1="521.38" x2="724.0693" y1="1430.65" y2="1430.65"/><text fill="#000000" font-family="sans-serif" font-size="14" lengthAdjust="spacing" textLength="28.0699" x="526.38" y="1449.6159">SMS</text><text fill="#000000" font-family="sans-serif" font-size="14" lengthAdjust="spacing" textLength="41.5098" x="526.38" y="1468.6839">EMAIL</text><text fill="#000000" font-family="sans-serif" font-size="14" lengthAdjust="spacing" textLength="17.9759" x="526.38" y="1487.7518">TG</text></g><!--class CustomerNotificationTemplate--><g id="elem_CustomerNotificationTemplate"><rect codeLine="91" fill="#F1F1F1" height="162.4075" id="CustomerNotificationTemplate" rx="2.5" ry="2.5" style="stroke:#181818;stroke-width:0.5;" width="288.961" x="850.25" y="423.21"/><ellipse cx="889.5958" cy="439.21" fill="#ADD1B2" rx="11" ry="11" style="stroke:#181818;stroke-width:1.0;"/><path d="M885.9552,445.71 L885.9552,433.5694 L893.6114,433.5694 L893.6114,435.6944 L888.3302,435.6944 L888.3302,438.3506 L893.3458,438.3506 L893.3458,440.4756 L888.3302,440.4756 L888.3302,443.585 L893.6114,443.585 L893.6114,445.71 L885.9552,445.71 Z " fill="#000000"/><text fill="#000000" font-family="sans-serif" font-size="14" lengthAdjust="spacing" textLength="202.8592" x="909.006" y="444.642">CustomerNotificationTemplate</text><line style="stroke:#181818;stroke-width:0.5;" x1="851.25" x2="1138.211" y1="455.21" y2="455.21"/><text fill="#000000" font-family="sans-serif" font-size="14" lengthAdjust="spacing" textLength="63.0558" x="856.25" y="474.1759">id: UUID7</text><line style="stroke:#181818;stroke-width:1.0;" x1="851.25" x2="1138.211" y1="482.2779" y2="482.2779"/><text fill="#000000" font-family="sans-serif" font-size="14" lengthAdjust="spacing" textLength="190.1893" x="856.25" y="501.2439">customer_id: UUID[0..1] &#171;FK&#187;</text><text fill="#000000" font-family="sans-serif" font-size="14" lengthAdjust="spacing" textLength="184.7433" x="856.25" y="520.3118">summary_template: varchar</text><text fill="#000000" font-family="sans-serif" font-size="14" lengthAdjust="spacing" textLength="196.1533" x="856.25" y="539.3797">description_template: varchar</text><text fill="#000000" font-family="sans-serif" font-size="14" lengthAdjust="spacing" textLength="276.961" x="856.25" y="558.4476">transport_type: NotificationTransportType</text><text fill="#000000" font-family="sans-serif" font-size="14" lengthAdjust="spacing" textLength="226.7992" x="856.25" y="577.5155">transport_template_params: jsonb</text></g><!--class CustomerNotification--><g id="elem_CustomerNotification"><rect codeLine="101" fill="#F1F1F1" height="238.6792" id="CustomerNotification" rx="2.5" ry="2.5" style="stroke:#181818;stroke-width:0.5;" width="288.961" x="478.25" y="1080.9"/><ellipse cx="547.9488" cy="1096.9" fill="#ADD1B2" rx="11" ry="11" style="stroke:#181818;stroke-width:1.0;"/><path d="M544.3081,1103.4 L544.3081,1091.2594 L551.9644,1091.2594 L551.9644,1093.3844 L546.6831,1093.3844 L546.6831,1096.0406 L551.6988,1096.0406 L551.6988,1098.1656 L546.6831,1098.1656 L546.6831,1101.275 L551.9644,1101.275 L551.9644,1103.4 L544.3081,1103.4 Z " fill="#000000"/><text fill="#000000" font-family="sans-serif" font-size="14" lengthAdjust="spacing" textLength="141.0635" x="568.4488" y="1102.332">CustomerNotification</text><line style="stroke:#181818;stroke-width:0.5;" x1="479.25" x2="766.211" y1="1112.9" y2="1112.9"/><text fill="#000000" font-family="sans-serif" font-size="14" lengthAdjust="spacing" textLength="63.0558" x="484.25" y="1131.8659">id: UUID7</text><line style="stroke:#181818;stroke-width:1.0;" x1="479.25" x2="766.211" y1="1139.9679" y2="1139.9679"/><text fill="#000000" font-family="sans-serif" font-size="14" lengthAdjust="spacing" textLength="157.4574" x="484.25" y="1158.9339">customer_id: UUID &#171;FK&#187;</text><text fill="#000000" font-family="sans-serif" font-size="14" lengthAdjust="spacing" textLength="230.7191" x="484.25" y="1178.0018">location_alarm_state_id: UUID &#171;FK&#187;</text><text fill="#000000" font-family="sans-serif" font-size="14" lengthAdjust="spacing" textLength="119.4615" x="484.25" y="1197.0697">summary: varchar</text><text fill="#000000" font-family="sans-serif" font-size="14" lengthAdjust="spacing" textLength="106.5256" x="484.25" y="1216.1376">description: text</text><text fill="#000000" font-family="sans-serif" font-size="14" lengthAdjust="spacing" textLength="139.0475" x="484.25" y="1235.2055">generated: DateTime</text><text fill="#000000" font-family="sans-serif" font-size="14" lengthAdjust="spacing" textLength="131.8375" x="484.25" y="1254.2734">sent: DateTime[0..1]</text><text fill="#000000" font-family="sans-serif" font-size="14" lengthAdjust="spacing" textLength="164.5553" x="484.25" y="1273.3414">delivered: DateTime[0..1]</text><text fill="#000000" font-family="sans-serif" font-size="14" lengthAdjust="spacing" textLength="276.961" x="484.25" y="1292.4093">transport_type: NotificationTransportType</text><text fill="#000000" font-family="sans-serif" font-size="14" lengthAdjust="spacing" textLength="161.5174" x="484.25" y="1311.4772">transport_params: jsonb</text></g><!--class LocationAlarmState--><g id="elem_LocationAlarmState"><rect codeLine="116" fill="#F1F1F1" height="162.4075" id="LocationAlarmState" rx="2.5" ry="2.5" style="stroke:#181818;stroke-width:0.5;" width="293.9589" x="313.75" y="858.49"/><ellipse cx="391.9817" cy="874.49" fill="#ADD1B2" rx="11" ry="11" style="stroke:#181818;stroke-width:1.0;"/><path d="M388.3411,880.99 L388.3411,868.8494 L395.9973,868.8494 L395.9973,870.9744 L390.7161,870.9744 L390.7161,873.6306 L395.7317,873.6306 L395.7317,875.7556 L390.7161,875.7556 L390.7161,878.865 L395.9973,878.865 L395.9973,880.99 L388.3411,880.99 Z " fill="#000000"/><text fill="#000000" font-family="sans-serif" font-size="14" lengthAdjust="spacing" textLength="128.9955" x="412.4817" y="879.922">LocationAlarmState</text><line style="stroke:#181818;stroke-width:0.5;" x1="314.75" x2="606.7089" y1="890.49" y2="890.49"/><text fill="#000000" font-family="sans-serif" font-size="14" lengthAdjust="spacing" textLength="149.1974" x="319.75" y="909.4559">id: UUID7 &#171;generated&#187;</text><line style="stroke:#181818;stroke-width:1.0;" x1="314.75" x2="606.7089" y1="917.5579" y2="917.5579"/><text fill="#000000" font-family="sans-serif" font-size="14" lengthAdjust="spacing" textLength="175.3634" x="319.75" y="936.5239">start_packet_id: UUID &#171;FK&#187;</text><text fill="#000000" font-family="sans-serif" font-size="14" lengthAdjust="spacing" textLength="281.9589" x="319.75" y="955.5918">start_confirmed_packet_id: UUID[0..1] &#171;FK&#187;</text><text fill="#000000" font-family="sans-serif" font-size="14" lengthAdjust="spacing" textLength="206.4852" x="319.75" y="974.6597">stop_packet_id: UUID[0..1] &#171;FK&#187;</text><text fill="#000000" font-family="sans-serif" font-size="14" lengthAdjust="spacing" textLength="280.3489" x="319.75" y="993.7276">stop_confirmed_packet_id: UUID[0..1] &#171;FK&#187;</text><text fill="#000000" font-family="sans-serif" font-size="14" lengthAdjust="spacing" textLength="106.8056" x="319.75" y="1012.7955">type: AlarmType</text></g><!--link Customer to Location--><g id="link_Customer_Location"><path codeLine="129" d="M707.3756,149.3663 C680.2556,170.2863 670.629,177.7016 642.969,199.0516 " fill="none" id="Customer-Location" style="stroke:#181818;stroke-width:1.0;"/><line style="stroke:#181818;stroke-width:1.0;" x1="708.0997" x2="712.9859" y1="143.7559" y2="150.0903"/><line style="stroke:#181818;stroke-width:1.0;" x1="705.7243" x2="710.6105" y1="145.5883" y2="151.9227"/><line style="stroke:#181818;stroke-width:1.0;" x1="707.3756" x2="713.71" y1="149.3663" y2="144.48"/><line style="stroke:#181818;stroke-width:1.0;" x1="635.0529" x2="632.3861" y1="205.1618" y2="214.7997"/><line style="stroke:#181818;stroke-width:1.0;" x1="635.0529" x2="625.0539" y1="205.1618" y2="205.3003"/><line style="stroke:#181818;stroke-width:1.0;" x1="635.0529" x2="628.72" y1="205.1618" y2="210.05"/><ellipse cx="639.8026" cy="201.4957" fill="none" rx="4" ry="4" style="stroke:#181818;stroke-width:1.0;"/></g><!--link Integrator to Location--><g id="link_Integrator_Location"><path codeLine="130" d="M536.73,158.65 C536.73,177.9 536.73,172.74 536.73,191.99 " fill="none" id="Integrator-Location" style="stroke:#181818;stroke-width:1.0;"/><line style="stroke:#181818;stroke-width:1.0;" x1="532.73" x2="540.73" y1="154.65" y2="154.65"/><line style="stroke:#181818;stroke-width:1.0;" x1="532.73" x2="540.73" y1="157.65" y2="157.65"/><line style="stroke:#181818;stroke-width:1.0;" x1="536.73" x2="536.73" y1="158.65" y2="150.65"/><line style="stroke:#181818;stroke-width:1.0;" x1="536.73" x2="542.73" y1="201.99" y2="209.99"/><line style="stroke:#181818;stroke-width:1.0;" x1="536.73" x2="530.73" y1="201.99" y2="209.99"/><line style="stroke:#181818;stroke-width:1.0;" x1="536.73" x2="536.73" y1="201.99" y2="209.99"/><ellipse cx="536.73" cy="195.99" fill="none" rx="4" ry="4" style="stroke:#181818;stroke-width:1.0;"/></g><!--link Location to IOTDevice--><g id="link_Location_IOTDevice"><path codeLine="131" d="M513.5363,361.633 C507.9663,380.513 509.2437,376.2157 503.4137,395.9757 " fill="none" id="Location-IOTDevice" style="stroke:#181818;stroke-width:1.0;"/><line style="stroke:#181818;stroke-width:1.0;" x1="510.8316" x2="518.5047" y1="356.6647" y2="358.9284"/><line style="stroke:#181818;stroke-width:1.0;" x1="509.9827" x2="517.6558" y1="359.5421" y2="361.8058"/><line style="stroke:#181818;stroke-width:1.0;" x1="513.5363" x2="515.8" y1="361.633" y2="353.96"/><line style="stroke:#181818;stroke-width:1.0;" x1="500.5838" x2="504.0748" y1="405.567" y2="414.9379"/><line style="stroke:#181818;stroke-width:1.0;" x1="500.5838" x2="492.5652" y1="405.567" y2="411.5421"/><line style="stroke:#181818;stroke-width:1.0;" x1="500.5838" x2="498.32" y1="405.567" y2="413.24"/><ellipse cx="502.2817" cy="399.8122" fill="none" rx="4" ry="4" style="stroke:#181818;stroke-width:1.0;"/></g><!--link IOTDevice to TelemetryPacket--><g id="link_IOTDevice_TelemetryPacket"><path codeLine="132" d="M381.753,601.2111 C363.193,620.9711 361.5925,622.6792 343.8425,641.5792 " fill="none" id="IOTDevice-TelemetryPacket" style="stroke:#181818;stroke-width:1.0;"/><line style="stroke:#181818;stroke-width:1.0;" x1="381.5759" x2="387.4071" y1="595.5571" y2="601.0341"/><line style="stroke:#181818;stroke-width:1.0;" x1="379.522" x2="385.3532" y1="597.7437" y2="603.2208"/><line style="stroke:#181818;stroke-width:1.0;" x1="381.753" x2="387.23" y1="601.2111" y2="595.38"/><line style="stroke:#181818;stroke-width:1.0;" x1="336.9967" x2="335.8936" y1="648.8685" y2="658.8075"/><line style="stroke:#181818;stroke-width:1.0;" x1="336.9967" x2="327.1464" y1="648.8685" y2="650.5925"/><line style="stroke:#181818;stroke-width:1.0;" x1="336.9967" x2="331.52" y1="648.8685" y2="654.7"/><ellipse cx="341.1042" cy="644.4949" fill="none" rx="4" ry="4" style="stroke:#181818;stroke-width:1.0;"/></g><!--link IOTDeviceCommand to IOTDevice--><g id="link_IOTDeviceCommand_IOTDevice"><path codeLine="133" d="M113.0817,1072.4732 C89.4817,955.1032 75.19,785.47 159.73,655.15 C206.07,583.7 289.041,547.6082 360.751,527.7182 " fill="none" id="IOTDeviceCommand-IOTDevice" style="stroke:#181818;stroke-width:1.0;"/><line style="stroke:#181818;stroke-width:1.0;" x1="115.053" x2="122.5123" y1="1082.277" y2="1088.9372"/><line style="stroke:#181818;stroke-width:1.0;" x1="115.053" x2="110.7477" y1="1082.277" y2="1091.3028"/><line style="stroke:#181818;stroke-width:1.0;" x1="115.053" x2="116.63" y1="1082.277" y2="1090.12"/><ellipse cx="113.8702" cy="1076.3947" fill="none" rx="4" ry="4" style="stroke:#181818;stroke-width:1.0;"/><line style="stroke:#181818;stroke-width:1.0;" x1="363.5364" x2="365.6746" y1="522.7946" y2="530.5036"/><line style="stroke:#181818;stroke-width:1.0;" x1="360.6456" x2="362.7838" y1="523.5965" y2="531.3054"/><line style="stroke:#181818;stroke-width:1.0;" x1="360.751" x2="368.46" y1="527.7182" y2="525.58"/></g><!--link TelemetryPacket to LocationAlarmState--><g id="link_TelemetryPacket_LocationAlarmState"><path codeLine="134" d="M336.2566,804.7796 C353.9266,823.7896 357.4867,827.6341 375.5967,847.1141 " fill="none" id="TelemetryPacket-LocationAlarmState" style="stroke:#181818;stroke-width:1.0;"/><line style="stroke:#181818;stroke-width:1.0;" x1="330.6035" x2="336.4631" y1="804.5731" y2="799.1265"/><line style="stroke:#181818;stroke-width:1.0;" x1="332.6459" x2="338.5055" y1="806.7704" y2="801.3239"/><line style="stroke:#181818;stroke-width:1.0;" x1="336.2566" x2="330.81" y1="804.7796" y2="798.92"/><line style="stroke:#181818;stroke-width:1.0;" x1="378.3203" x2="385.81" y1="850.0437" y2="858.1"/><ellipse cx="378.3203" cy="850.0437" fill="none" rx="4" ry="4" style="stroke:#181818;stroke-width:1.0;"/><line style="stroke:#181818;stroke-width:1.0;" x1="386.016" x2="380.1569" y1="852.4469" y2="857.894"/></g><!--link LocationAlarmState to IOTDeviceCommand--><g id="link_LocationAlarmState_IOTDeviceCommand"><path codeLine="135" d="M350.8603,1030.5881 C324.1403,1052.4481 320.2795,1055.5996 291.9695,1078.7696 " fill="none" id="LocationAlarmState-IOTDeviceCommand" style="stroke:#181818;stroke-width:1.0;"/><line style="stroke:#181818;stroke-width:1.0;" x1="353.9562" x2="362.47" y1="1028.0553" y2="1021.09"/><ellipse cx="353.9562" cy="1028.0553" fill="none" rx="4" ry="4" style="stroke:#181818;stroke-width:1.0;"/><line style="stroke:#181818;stroke-width:1.0;" x1="356.8412" x2="361.9069" y1="1020.5269" y2="1026.7188"/><line style="stroke:#181818;stroke-width:1.0;" x1="284.2309" x2="281.8401" y1="1085.1031" y2="1094.8132"/><line style="stroke:#181818;stroke-width:1.0;" x1="284.2309" x2="274.2399" y1="1085.1031" y2="1085.5268"/><line style="stroke:#181818;stroke-width:1.0;" x1="284.2309" x2="278.04" y1="1085.1031" y2="1090.17"/><ellipse cx="288.874" cy="1081.303" fill="none" rx="4" ry="4" style="stroke:#181818;stroke-width:1.0;"/></g><!--link LocationAlarmState to CustomerNotification--><g id="link_LocationAlarmState_CustomerNotification"><path codeLine="136" d="M515.3471,1027.8695 C527.1371,1046.6895 526.143,1045.1067 538.743,1065.2167 " fill="none" id="LocationAlarmState-CustomerNotification" style="stroke:#181818;stroke-width:1.0;"/><line style="stroke:#181818;stroke-width:1.0;" x1="509.8338" x2="516.6133" y1="1026.6033" y2="1022.3562"/><line style="stroke:#181818;stroke-width:1.0;" x1="511.4265" x2="518.206" y1="1029.1456" y2="1024.8985"/><line style="stroke:#181818;stroke-width:1.0;" x1="515.3471" x2="511.1" y1="1027.8695" y2="1021.09"/><line style="stroke:#181818;stroke-width:1.0;" x1="544.0524" x2="553.3844" y1="1073.6908" y2="1077.2843"/><line style="stroke:#181818;stroke-width:1.0;" x1="544.0524" x2="543.2156" y1="1073.6908" y2="1083.6557"/><line style="stroke:#181818;stroke-width:1.0;" x1="544.0524" x2="548.3" y1="1073.6908" y2="1080.47"/><ellipse cx="540.8668" cy="1068.6063" fill="none" rx="4" ry="4" style="stroke:#181818;stroke-width:1.0;"/></g><!--link Customer to CustomerNotification--><g id="link_Customer_CustomerNotification"><path codeLine="137" d="M797.73,158.52 C797.73,242.67 797.73,379.27 797.73,503.42 C797.73,503.42 797.73,503.42 797.73,727.82 C797.73,853.97 750.321,971.9645 701.751,1064.7045 " fill="none" id="Customer-CustomerNotification" style="stroke:#181818;stroke-width:1.0;"/><line style="stroke:#181818;stroke-width:1.0;" x1="793.73" x2="801.73" y1="154.52" y2="154.52"/><line style="stroke:#181818;stroke-width:1.0;" x1="793.73" x2="801.73" y1="157.52" y2="157.52"/><line style="stroke:#181818;stroke-width:1.0;" x1="797.73" x2="797.73" y1="158.52" y2="150.52"/><line style="stroke:#181818;stroke-width:1.0;" x1="697.1116" x2="698.7152" y1="1073.5631" y2="1083.4337"/><line style="stroke:#181818;stroke-width:1.0;" x1="697.1116" x2="688.0848" y1="1073.5631" y2="1077.8663"/><line style="stroke:#181818;stroke-width:1.0;" x1="697.1116" x2="693.4" y1="1073.5631" y2="1080.65"/><ellipse cx="699.8952" cy="1068.2479" fill="none" rx="4" ry="4" style="stroke:#181818;stroke-width:1.0;"/></g><!--link Customer to CustomerNotificationTemplate--><g id="link_Customer_CustomerNotificationTemplate"><path codeLine="138" d="M837.024,164.2018 C871.964,239.3518 913.1209,327.8981 949.6809,406.5281 " fill="none" id="Customer-CustomerNotificationTemplate" style="stroke:#181818;stroke-width:1.0;"/><line style="stroke:#181818;stroke-width:1.0;" x1="835.3376" x2="830.7" y1="160.5746" y2="150.6"/><ellipse cx="835.3376" cy="160.5746" fill="none" rx="4" ry="4" style="stroke:#181818;stroke-width:1.0;"/><line style="stroke:#181818;stroke-width:1.0;" x1="828.7593" x2="836.0135" y1="155.9135" y2="152.5407"/><line style="stroke:#181818;stroke-width:1.0;" x1="953.8971" x2="962.7106" y1="415.5958" y2="420.3203"/><line style="stroke:#181818;stroke-width:1.0;" x1="953.8971" x2="951.8294" y1="415.5958" y2="425.3797"/><line style="stroke:#181818;stroke-width:1.0;" x1="953.8971" x2="957.27" y1="415.5958" y2="422.85"/><ellipse cx="951.3674" cy="410.1552" fill="none" rx="4" ry="4" style="stroke:#181818;stroke-width:1.0;"/></g><!--link CustomerNotification to NotificationTransportType--><g id="link_CustomerNotification_NotificationTransportType"><path codeLine="140" d="M622.73,1319.8 C622.73,1347.65 622.73,1369.77 622.73,1392.4 " fill="none" id="CustomerNotification-to-NotificationTransportType" style="stroke:#181818;stroke-width:1.0;stroke-dasharray:7.0,7.0;"/><polygon fill="#181818" points="622.73,1398.4,626.73,1389.4,622.73,1393.4,618.73,1389.4,622.73,1398.4" style="stroke:#181818;stroke-width:1.0;"/></g><!--link LocationAlarmState to AlarmType--><g id="link_LocationAlarmState_AlarmType"><path codeLine="141" d="M607.84,994.89 C664.73,1018.26 729.34,1047.84 784.73,1080.9 C823.46,1104.02 858.8215,1132.0671 887.7315,1156.9371 " fill="none" id="LocationAlarmState-to-AlarmType" style="stroke:#181818;stroke-width:1.0;stroke-dasharray:7.0,7.0;"/><polygon fill="#181818" points="892.28,1160.85,888.0658,1151.9483,888.4896,1157.5892,882.8486,1158.013,892.28,1160.85" style="stroke:#181818;stroke-width:1.0;"/></g><!--link CustomerNotificationTemplate to AlarmType--><g id="link_CustomerNotificationTemplate_AlarmType"><path codeLine="142" d="M987.75,586.02 C974.82,735.65 948.0569,1045.0823 938.5769,1154.7223 " fill="none" id="CustomerNotificationTemplate-to-AlarmType" style="stroke:#181818;stroke-width:1.0;stroke-dasharray:7.0,7.0;"/><polygon fill="#181818" points="938.06,1160.7,942.8204,1152.078,938.4907,1155.7186,934.8502,1151.3889,938.06,1160.7" style="stroke:#181818;stroke-width:1.0;"/></g><!--link IOTDeviceCommand to IOTDeviceCommandStatus--><g id="link_IOTDeviceCommand_IOTDeviceCommandStatus"><path codeLine="143" d="M144.73,1310.49 C144.73,1333.97 144.73,1352.11 144.73,1373.4 " fill="none" id="IOTDeviceCommand-to-IOTDeviceCommandStatus" style="stroke:#181818;stroke-width:1.0;stroke-dasharray:7.0,7.0;"/><polygon fill="#181818" points="144.73,1379.4,148.73,1370.4,144.73,1374.4,140.73,1370.4,144.73,1379.4" style="stroke:#181818;stroke-width:1.0;"/></g><!--link IOTDevice to IOTDeviceType--><g id="link_IOTDevice_IOTDeviceType"><path codeLine="144" d="M471.73,595.38 C471.73,627.52 471.73,656.04 471.73,681.49 " fill="none" id="IOTDevice-to-IOTDeviceType" style="stroke:#181818;stroke-width:1.0;stroke-dasharray:7.0,7.0;"/><polygon fill="#181818" points="471.73,687.49,475.73,678.49,471.73,682.49,467.73,678.49,471.73,687.49" style="stroke:#181818;stroke-width:1.0;"/></g><!--link IOTDevice to IOTDeviceProtocol--><g id="link_IOTDevice_IOTDeviceProtocol"><path codeLine="145" d="M551.73,595.38 C584.01,631.69 615.0124,666.5468 638.0224,692.4168 " fill="none" id="IOTDevice-to-IOTDeviceProtocol" style="stroke:#181818;stroke-width:1.0;stroke-dasharray:7.0,7.0;"/><polygon fill="#181818" points="642.01,696.9,639.0174,687.5168,638.687,693.164,633.0398,692.8336,642.01,696.9" style="stroke:#181818;stroke-width:1.0;"/></g><!--SRC=[jLRTRjis5BxtKt1N1eBQRG8C1OmYW66hWJ773cndnH0K0YCnDZTJ54ZQcr4NwBgR0IssL-cA1IlM9Ni5wOrsH56oVkWq6rRVM3hdu-4vt_bug0Nr2I8iL1l42BiaGZOQ950KtdihgJWZ0hre8FWTKB-3piy7VVJaoPm4H615_EDZxMkrKaY06UcWDHRU0elK52vuKBKHXkcoOiE-BuYKE-lBF951eCWSjkDPAfyjayAcG-vXHNcGLRyqx-uzDlSCSqNiqwyCw83cvTZzbjJjvAmO6endVRAc7fbjGc9IdJcdPywaEpkVEExK6Kt74sr-rfsS3aOdxlIRAI3g4Su4LzpZInC5xExPP3mRzyR3G_ImYJ3oLunjK9ZXcW-BFSh2t5yjDKOl7hNRXyyD5ycMleue4GrWz- -n80k-aWJvF6WgjC1hKeo1956G4qgtLy17fqnFwbYJmEUYmY_ZFgaAKjVPgVEZlO3oauHqxcRPnM6xVVIymCcCB0aZIcpEiFST95TXvl5-QYXNRbgyLIBvgWxgmz-CihGuGJn2rpLpY3TBZi7whUJ1PK9ihybuy01HrPJewD7HbuYlr888yaNUrA8oUfmn7FXJXTLAcYfEd56YCQUltq1cC_tGTuQ3hvs9CVUwevup79gtfzr1ycZHZDdW_oCebmLUOi5S2PaJkypkv5D2eZjJkauxG2t0ioWkA7XplYytYYIgE4ZjKXFOsKEiXbp1E78P77Ky1_bEbQ31t4JEsj9DIYeSz-uG3lOXqh_2CTMLe-GOe8HQgYG2vIVztIrodL4VvO57ND4hcX8t4pYG8HUgiD7qTAh_dLDeP3ffJWhTpAwBKXYuMPP0K6LkFowsiZOiw_sHK14M6rUPSEMJwXFf2HhgVjiHAgl6JSV2taghQ1FD3R70J9e3z8cQ_rMjznQjXOwzB7IG8ZyeRMsc1UUQ-Hno_w_ixYCrktbrqidPgCbd_rm0qdJaPDxQkTC0ZmTNL33YLw7bAmX-PX4FxqJkKFUBd39XQKspTYccPaOLdQSEBnqQbZboOUPCCoXq070sbIPOe3p_njjkMot-8kU-KVZcghhoBoFZoDDex3u2ZAjo0pPg4_ybRxMssqA8wfsf0sqjccXOPBBbvOJCBbPecg2DcXefdm3nlQ1y_C5SZgxZ7-FNyLiK_nozYtwBFaQtqKtyvW6ARg9h5FqTlue-HE_ZNwC_m7sJk1BpJVG1HNyYmFuEpxVHN_5FW8M7Z_5RGDv6xwDtyUle6jv_IMPxmpgHsktZEqwbXPramKwOTvPMXjOQdBZtt7SxjPH0vJXbN_ODzWy0]--></g></svg>